<?xml version="1.0" encoding="utf-8"?>
<!-- Generator: Adobe Illustrator 18.1.1, SVG Export Plug-In . SVG Version: 6.00 Build 0)  -->
<!DOCTYPE svg PUBLIC "-//W3C//DTD SVG 1.1//EN" "http://www.w3.org/Graphics/SVG/1.1/DTD/svg11.dtd">
<svg version="1.1" id="Layer_1" xmlns="http://www.w3.org/2000/svg" xmlns:xlink="http://www.w3.org/1999/xlink" x="0px" y="0px"
	 width="399.3px" height="383.6px" viewBox="0 0 399.3 383.6" enable-background="new 0 0 399.3 383.6" xml:space="preserve">
<g>
	<path d="M351.9,327.8c-11.1,0-21.2,0-31.8,0c0-90.6,0-180.9,0-271.9c10.2,0,20.6,0,31.6,0c0-18.9,0-37.3,0-55.9
		c5.5,0,10.4,0,15.9,0c0,18.4,0,36.8,0,55.6c10.8,0,21.1,0,31.8,0c0,90.7,0,181.1,0,272c-10.2,0-20.6,0-31.5,0c0,18.9,0,37.3,0,56
		c-5.5,0-10.4,0-15.9,0C351.9,365.1,351.9,346.7,351.9,327.8z M336.1,72c0,80.1,0,159.8,0,239.5c16,0,31.6,0,47.4,0
		c0-79.9,0-159.6,0-239.5C367.6,72,352,72,336.1,72z"/>
	<path d="M47.9,383.6c-5.7,0-10.5,0-15.9,0c0-39.8,0-79.5,0-119.8c-10.9,0-21.3,0-32,0C0,205.1,0,146.8,0,88c10.3,0,20.7,0,31.6,0
		c0-29.6,0-58.7,0-88C37.1,0,42,0,47.5,0c0,29,0,58,0,87.6c10.9,0,21.3,0,32,0c0,58.8,0,117.1,0,175.9c-10.3,0-20.7,0-31.6,0
		C47.9,303.8,47.9,343.5,47.9,383.6z M16.1,104c0,48.1,0,95.8,0,143.4c16.1,0,31.8,0,47.4,0c0-48,0-95.6,0-143.4
		C47.6,104,32,104,16.1,104z"/>
	<path d="M160,327.9c0-48.5,0-96.1,0-144.1c10.5,0,20.8,0,31.6,0c0-61.4,0-122.5,0-183.8c5.6,0,10.6,0,16,0c0,61.1,0,122,0,183.5
		c10.7,0,21.1,0,31.8,0c0,48.3,0,96,0,144.1c-10.4,0-20.6,0-31.5,0c0,18.8,0,37.1,0,55.9c-5.6,0-10.7,0-16.1,0c0-18.4,0-36.7,0-55.5
		C181.1,327.9,170.7,327.9,160,327.9z M223.3,311.5c0-37.6,0-74.6,0-111.5c-16,0-31.6,0-47.3,0c0,37.3,0,74.4,0,111.5
		C192,311.5,207.6,311.5,223.3,311.5z"/>
</g>
</svg>
