<?xml version="1.0" encoding="utf-8"?>
<!-- Generator: Adobe Illustrator 18.1.1, SVG Export Plug-In . SVG Version: 6.00 Build 0)  -->
<!DOCTYPE svg PUBLIC "-//W3C//DTD SVG 1.1//EN" "http://www.w3.org/Graphics/SVG/1.1/DTD/svg11.dtd">
<svg version="1.1" id="Layer_1" xmlns="http://www.w3.org/2000/svg" xmlns:xlink="http://www.w3.org/1999/xlink" x="0px" y="0px"
	 width="416.5px" height="403px" viewBox="-608.5 248.9 416.5 403" enable-background="new -608.5 248.9 416.5 403"
	 xml:space="preserve">
<g>
	<path fill="#FFFFFF" stroke="#FFFFFF" stroke-width="18" stroke-miterlimit="10" d="M-247.1,587.2c-11.1,0-21.2,0-31.8,0
		c0-90.6,0-180.9,0-271.9c10.2,0,20.6,0,31.6,0c0-18.9,0-37.3,0-55.9c5.5,0,10.4,0,15.9,0c0,18.4,0,36.8,0,55.6
		c10.8,0,21.1,0,31.8,0c0,90.7,0,181.1,0,272c-10.2,0-20.6,0-31.5,0c0,18.9,0,37.3,0,56c-5.5,0-10.4,0-15.9,0
		C-247.1,624.5-247.1,606.1-247.1,587.2z M-262.9,331.4c0,80.1,0,159.8,0,239.5c16,0,31.6,0,47.4,0c0-79.9,0-159.6,0-239.5
		C-231.4,331.4-247,331.4-262.9,331.4z"/>
	<path fill="#FFFFFF" stroke="#FFFFFF" stroke-width="18" stroke-miterlimit="10" d="M-538.7,643c-7.2,0-13.2,0-20,0
		c0-39.8,0-79.5,0-119.8c-13.7,0-26.8,0-40.3,0c0-58.7,0-117,0-175.8c13,0,26,0,39.7,0c0-29.6,0-58.7,0-88c6.9,0,13.1,0,20,0
		c0,29,0,58,0,87.6c13.7,0,26.8,0,40.3,0c0,58.8,0,117.1,0,175.9c-13,0-26,0-39.7,0C-538.7,563.2-538.7,602.9-538.7,643z
		 M-578.7,363.4c0,48.1,0,95.8,0,143.4c20.3,0,40,0,59.6,0c0-48,0-95.6,0-143.4C-539.1,363.4-558.7,363.4-578.7,363.4z"/>
	<path fill="#FFFFFF" stroke="#FFFFFF" stroke-width="18" stroke-miterlimit="10" d="M-439,587.3c0-48.5,0-96.1,0-144.1
		c10.5,0,20.8,0,31.6,0c0-61.4,0-122.5,0-183.8c5.6,0,10.6,0,16,0c0,61.1,0,122,0,183.5c10.7,0,21.1,0,31.8,0c0,48.3,0,96,0,144.1
		c-10.4,0-20.6,0-31.5,0c0,18.8,0,37.1,0,55.9c-5.6,0-10.7,0-16.1,0c0-18.4,0-36.7,0-55.5C-417.9,587.3-428.3,587.3-439,587.3z
		 M-375.7,570.9c0-37.6,0-74.6,0-111.5c-16,0-31.6,0-47.3,0c0,37.3,0,74.4,0,111.5C-407,570.9-391.4,570.9-375.7,570.9z"/>
</g>
</svg>
