<?xml version="1.0" encoding="utf-8"?>
<!-- Generator: Adobe Illustrator 18.1.1, SVG Export Plug-In . SVG Version: 6.00 Build 0)  -->
<!DOCTYPE svg PUBLIC "-//W3C//DTD SVG 1.1//EN" "http://www.w3.org/Graphics/SVG/1.1/DTD/svg11.dtd">
<svg version="1.1" id="Layer_1" xmlns="http://www.w3.org/2000/svg" xmlns:xlink="http://www.w3.org/1999/xlink" x="0px" y="0px"
	 width="83.4px" height="83.4px" viewBox="0 0 83.4 83.4" enable-background="new 0 0 83.4 83.4" xml:space="preserve">
<g>
	<path fill="#FFFFFF" d="M0,70.4C0,46.9,0,23.5,0,0c27.8,0,55.6,0,83.4,0c0,27.8,0,55.6,0,83.4c-27.8,0-55.6,0-83.4,0
		c0-3.5,0-6.9,0-10.4c0.7,0,1.4-0.1,2.1-0.1c26.3,0,52.6,0,78.8,0c0.7,0,1.4,0,2.1,0c0-0.9,0-1.6,0-2.5c-1.3,0-2.5,0-3.9,0
		c0-15.5,0-30.8,0-46.2c-0.6,0.2-0.9,0.3-1.3,0.4c-8.5,2.8-17,5.6-25.5,8.5c-1.1,0.4-2,0.3-2.9-0.5c-4.2-3.3-8.4-6.4-12.6-9.6
		c-0.3-0.2-0.7-0.5-1.1-0.7c-3.6,3.4-7.2,6.6-10.9,10.1c-7.3-7.3-14.5-14.5-21.9-21.9c0,20,0,39.9,0,59.9C1.8,70.4,0.9,70.4,0,70.4z
		"/>
	<path d="M0,70.4c0.9,0,1.8,0,2.9,0c0-20,0-39.9,0-59.9c7.3,7.4,14.6,14.6,21.9,21.9c3.8-3.5,7.3-6.8,10.9-10.1
		c0.4,0.3,0.8,0.5,1.1,0.7c4.2,3.2,8.5,6.4,12.6,9.6c1,0.8,1.8,0.8,2.9,0.5c8.5-2.9,17-5.7,25.5-8.5c0.4-0.1,0.7-0.2,1.3-0.4
		c0,15.4,0,30.7,0,46.2c1.4,0,2.6,0,3.9,0c0,0.9,0,1.6,0,2.5c-0.7,0-1.4,0-2.1,0c-26.3,0-52.6,0-78.8,0C1.4,72.9,0.7,73,0,73
		C0,72.1,0,71.3,0,70.4z M24.5,46.7c3.3-1.9,6.6-3.7,9.8-5.6c1.1-0.7,1.9-0.6,2.9-0.1c4.1,2.1,8.3,4.2,12.5,6.2
		c0.5,0.3,1.3,0.4,1.8,0.2c8.2-2.7,16.3-5.4,24.4-8.1c0.4-0.1,0.9-0.6,0.9-0.9c0.1-3.6,0-7.2,0-10.9c-0.8,0.2-1.4,0.3-1.9,0.5
		c-7.6,2.5-15.2,5-22.7,7.6c-1.4,0.5-2.4,0.3-3.5-0.6c-4.2-3.3-8.5-6.5-12.8-9.8c-3.7,3.4-7.3,6.8-11.4,10.5
		c-6.5-6.5-12.9-13-19.4-19.4c0,2.2-0.1,4.6,0,6.9c0.1,0.9,0.4,2,1,2.7c3.4,4,7,8,10.5,11.9C19.3,40.8,21.9,43.7,24.5,46.7z"/>
	<path fill="#FFFFFF" d="M24.5,46.7c-2.6-3-5.2-5.9-7.8-8.8C13.2,33.9,9.7,30,6.3,26c-0.6-0.7-0.9-1.8-1-2.7c-0.1-2.3,0-4.6,0-6.9
		c6.4,6.4,12.8,12.9,19.4,19.4c4-3.7,7.6-7.1,11.4-10.5c4.3,3.3,8.6,6.5,12.8,9.8c1.2,0.9,2.1,1.1,3.5,0.6C59.8,33,67.4,30.5,75,28
		c0.6-0.2,1.1-0.3,1.9-0.5c0,3.8,0,7.4,0,10.9c0,0.3-0.5,0.8-0.9,0.9c-8.1,2.7-16.3,5.5-24.4,8.1c-0.5,0.2-1.3,0-1.8-0.2
		c-4.2-2-8.4-4.1-12.5-6.2c-1.1-0.5-1.9-0.6-2.9,0.1C31.1,43,27.9,44.8,24.5,46.7z"/>
</g>
</svg>
