<?xml version="1.0" encoding="utf-8"?>
<!-- Generator: Adobe Illustrator 16.0.4, SVG Export Plug-In . SVG Version: 6.00 Build 0)  -->
<!DOCTYPE svg PUBLIC "-//W3C//DTD SVG 1.1//EN" "http://www.w3.org/Graphics/SVG/1.1/DTD/svg11.dtd">
<svg version="1.1" id="Capa_1" xmlns="http://www.w3.org/2000/svg" xmlns:xlink="http://www.w3.org/1999/xlink" x="0px" y="0px"
	 width="216px" height="146px" viewBox="0 0 216 146" enable-background="new 0 0 216 146" xml:space="preserve">
<path d="M153.121,76.34c-3.15-4.073-7.903-6.87-14.258-8.391c8.093-4.128,11.65-11.135,10.673-21.021
	c-0.325-3.585-1.317-6.692-2.974-9.326c-1.658-2.634-3.897-4.752-6.723-6.354c-2.824-1.604-5.895-2.825-9.206-3.667
	c-3.313-0.842-7.116-1.453-11.407-1.833V5.217H106.68v19.961c-2.172,0-5.485,0.054-9.939,0.163V5.217H84.194v20.531
	c-1.793,0.055-4.427,0.082-7.903,0.082l-17.272-0.082V39.11h9.043c4.128,0,6.545,1.847,7.251,5.54v23.383
	c0.544,0,0.978,0.028,1.304,0.082h-1.304v32.751c-0.434,2.77-2.009,4.155-4.725,4.155h-9.043l-2.526,14.91h16.295
	c1.032,0,2.525,0.014,4.481,0.039c1.955,0.027,3.421,0.041,4.399,0.041v20.775h12.549v-20.531c2.281,0.055,5.594,0.082,9.939,0.082
	v20.449h12.546v-20.775c4.455-0.217,8.406-0.623,11.854-1.222c3.449-0.599,6.749-1.535,9.899-2.812
	c3.149-1.276,5.783-2.865,7.902-4.767c2.118-1.899,3.869-4.317,5.256-7.251c1.383-2.934,2.267-6.328,2.646-10.186
	C157.494,86.227,156.271,80.414,153.121,76.34z M96.985,40.004c0.38,0,1.453-0.014,3.218-0.041c1.766-0.028,3.232-0.055,4.4-0.082
	c1.168-0.027,2.743,0.041,4.726,0.204c1.983,0.163,3.653,0.381,5.011,0.652c1.357,0.271,2.852,0.719,4.48,1.344
	c1.63,0.624,2.933,1.385,3.91,2.281c0.978,0.896,1.806,2.037,2.484,3.422c0.68,1.385,1.02,2.974,1.02,4.766
	c0,1.521-0.244,2.906-0.733,4.156c-0.487,1.249-1.222,2.295-2.199,3.137s-1.983,1.576-3.015,2.2
	c-1.032,0.624-2.35,1.127-3.951,1.507c-1.602,0.38-3.001,0.679-4.195,0.896c-1.195,0.217-2.688,0.367-4.481,0.448
	c-1.793,0.081-3.151,0.136-4.074,0.163c-0.924,0.027-2.186,0.027-3.789,0s-2.539-0.041-2.811-0.041V40.004z M131.246,95.487
	c-0.518,1.25-1.182,2.336-1.996,3.26c-0.816,0.922-1.889,1.738-3.219,2.442c-1.331,0.707-2.621,1.277-3.87,1.712
	c-1.249,0.436-2.757,0.814-4.521,1.141c-1.767,0.326-3.314,0.556-4.646,0.693c-1.33,0.135-2.919,0.243-4.766,0.325
	c-1.846,0.08-3.286,0.121-4.318,0.121c-1.032,0-2.336-0.014-3.911-0.041c-1.576-0.025-2.58-0.039-3.015-0.039V77.562
	c0.434,0,1.724-0.026,3.87-0.082c2.146-0.054,3.897-0.08,5.255-0.08s3.232,0.08,5.623,0.244c2.389,0.162,4.398,0.406,6.029,0.732
	c1.629,0.326,3.407,0.828,5.336,1.508c1.928,0.678,3.49,1.506,4.685,2.484c1.196,0.979,2.2,2.227,3.015,3.748
	c0.816,1.521,1.223,3.259,1.223,5.215C132.02,92.854,131.762,94.237,131.246,95.487z"/>
</svg>
