<?xml version="1.0" encoding="utf-8"?>
<!-- Generator: Adobe Illustrator 18.1.0, SVG Export Plug-In . SVG Version: 6.00 Build 0)  -->
<!DOCTYPE svg PUBLIC "-//W3C//DTD SVG 1.1//EN" "http://www.w3.org/Graphics/SVG/1.1/DTD/svg11.dtd">
<svg version="1.1" id="Ebene_1" xmlns="http://www.w3.org/2000/svg" xmlns:xlink="http://www.w3.org/1999/xlink" x="0px" y="0px"
	 viewBox="0 0 1600 900" enable-background="new 0 0 1600 900" xml:space="preserve">
<g>
	<path fill="#346AA9" d="M1018.6,538.5c-28.3-16.3-60.3-23.8-92.1-22.3c-11.5,0-23-3-33-8.8c-20.5-11.8-33-33.8-33-57.3
		c0-23.5,12.8-45.5,33-57.3c10-5.8,21.5-8.8,33-8.8c31.5,1.5,63.5-5.8,92.1-22.3c51.8-30,83.8-85.3,83.8-145.1s-32-115.1-83.8-145.1
		c-51.8-30-115.8-30-167.6,0s-83.8,85.3-83.8,145.1c0,32.5,9.5,63.5,26.3,90.1c6,10,9.3,21.8,9.3,33.8c0,23.5-12.8,45.5-33,57.3
		c-10,5.8-21.5,8.8-33,8.8c-11.5,0-23-3-33-8.8c-10.5-6-18.8-14.8-24.5-24.8c-14.5-27.8-36.8-51.5-64.8-67.8
		c-51.8-30-115.8-30-167.6,0S363,390.7,363,450.5c0,59.8,32,115.1,83.8,145.1s115.8,30,167.6,0c28-16.3,50.3-40,64.8-67.8
		c5.8-10.3,14.3-18.8,24.5-24.8c10-5.8,21.5-8.8,33-8.8s23,3,33,8.8c20.5,11.8,33,33.8,33,57.3c0,12-3.3,23.8-9.3,33.8
		c-16.8,26.5-26.3,57.5-26.3,90.1c0,59.8,32,115.1,83.8,145.1c51.8,30,115.8,30,167.6,0c51.8-30,83.8-85.3,83.8-145.1
		C1102.4,623.6,1070.4,568.3,1018.6,538.5z"/>
</g>
</svg>
