<?xml version="1.0" encoding="utf-8"?>
<!-- Generator: Adobe Illustrator 18.1.0, SVG Export Plug-In . SVG Version: 6.00 Build 0)  -->
<!DOCTYPE svg PUBLIC "-//W3C//DTD SVG 1.1//EN" "http://www.w3.org/Graphics/SVG/1.1/DTD/svg11.dtd">
<svg version="1.1" id="Capa_1" xmlns="http://www.w3.org/2000/svg" xmlns:xlink="http://www.w3.org/1999/xlink" x="0px" y="0px"
	 viewBox="-691 378 216 146" enable-background="new -691 378 216 146" xml:space="preserve">
<path fill="#2BD983" d="M-542.2,474c-0.5-0.5-1.1-0.8-1.9-0.8h-13.2c-0.8,0-1.4,0.3-1.9,0.8c-0.5,0.5-0.7,1.1-0.7,1.8v14.7h-33.7
	v-30.9h24.8c0.7,0,1.3-0.3,1.8-0.8c0.5-0.5,0.8-1.1,0.8-1.8v-10.7c0-0.8-0.3-1.4-0.8-1.9c-0.5-0.5-1.1-0.7-1.8-0.7h-24.8v-17.5
	c0-4.1,1.4-7.5,4.2-10c2.8-2.6,6.5-3.8,11.2-3.8c2.4,0,5,0.5,7.6,1.5c2.6,1,4.5,1.8,5.6,2.6c1.1,0.8,1.8,1.3,2.1,1.5
	c0.5,0.5,1.2,0.7,1.9,0.6c0.7-0.1,1.3-0.4,1.8-1l8.4-10.3c0.4-0.5,0.6-1.2,0.6-1.8c-0.1-0.7-0.3-1.2-0.8-1.7
	c-8.1-6.8-17.2-10.2-27.3-10.2c-10.4,0-18.9,3-25.6,9c-6.7,6-10.1,13.7-10.1,23v18.2h-7.7c-0.8,0-1.4,0.2-1.9,0.7
	c-0.5,0.5-0.7,1.1-0.7,1.9v10.7c0,0.7,0.2,1.3,0.7,1.8c0.5,0.5,1.1,0.8,1.9,0.8h7.7v31.2h-7.9c-0.7,0-1.3,0.3-1.8,0.8
	s-0.8,1.1-0.8,1.8v12.2c0,0.8,0.2,1.4,0.7,1.9c0.5,0.5,1.1,0.7,1.9,0.7h77.9c0.8,0,1.4-0.2,1.9-0.7c0.5-0.5,0.7-1.1,0.7-1.9v-29.9
	C-541.4,475.1-541.7,474.5-542.2,474z"/>
</svg>
