<?xml version="1.0" encoding="utf-8"?>
<!-- Generator: Adobe Illustrator 18.1.0, SVG Export Plug-In . SVG Version: 6.00 Build 0)  -->
<!DOCTYPE svg PUBLIC "-//W3C//DTD SVG 1.1//EN" "http://www.w3.org/Graphics/SVG/1.1/DTD/svg11.dtd">
<svg version="1.1" id="Capa_1" xmlns="http://www.w3.org/2000/svg" xmlns:xlink="http://www.w3.org/1999/xlink" x="0px" y="0px"
	 viewBox="-691 378 216 146" enable-background="new -691 378 216 146" xml:space="preserve">
<path fill="#DC8246" d="M-537.9,454.3c-3.1-4.1-7.9-6.9-14.3-8.4c8.1-4.1,11.6-11.1,10.7-21c-0.3-3.6-1.3-6.7-3-9.3
	c-1.7-2.6-3.9-4.8-6.7-6.4c-2.8-1.6-5.9-2.8-9.2-3.7c-3.3-0.8-7.1-1.5-11.4-1.8v-20.5h-12.5v20c-2.2,0-5.5,0.1-9.9,0.2v-20.1h-12.5
	v20.5c-1.8,0.1-4.4,0.1-7.9,0.1l-17.3-0.1v13.4h9c4.1,0,6.5,1.8,7.3,5.5V446c0.5,0,1,0,1.3,0.1h-1.3v32.8c-0.4,2.8-2,4.2-4.7,4.2h-9
	l-2.5,14.9h16.3c1,0,2.5,0,4.5,0c2,0,3.4,0,4.4,0v20.8h12.5v-20.5c2.3,0.1,5.6,0.1,9.9,0.1v20.4h12.5V498c4.5-0.2,8.4-0.6,11.9-1.2
	c3.4-0.6,6.7-1.5,9.9-2.8c3.1-1.3,5.8-2.9,7.9-4.8c2.1-1.9,3.9-4.3,5.3-7.3c1.4-2.9,2.3-6.3,2.6-10.2
	C-533.5,464.2-534.7,458.4-537.9,454.3z M-594,418c0.4,0,1.5,0,3.2,0c1.8,0,3.2-0.1,4.4-0.1c1.2,0,2.7,0,4.7,0.2
	c2,0.2,3.7,0.4,5,0.7c1.4,0.3,2.9,0.7,4.5,1.3c1.6,0.6,2.9,1.4,3.9,2.3c1,0.9,1.8,2,2.5,3.4c0.7,1.4,1,3,1,4.8
	c0,1.5-0.2,2.9-0.7,4.2c-0.5,1.2-1.2,2.3-2.2,3.1c-1,0.8-2,1.6-3,2.2c-1,0.6-2.3,1.1-4,1.5c-1.6,0.4-3,0.7-4.2,0.9
	c-1.2,0.2-2.7,0.4-4.5,0.4c-1.8,0.1-3.2,0.1-4.1,0.2c-0.9,0-2.2,0-3.8,0c-1.6,0-2.5,0-2.8,0L-594,418L-594,418z M-559.8,473.5
	c-0.5,1.2-1.2,2.3-2,3.3c-0.8,0.9-1.9,1.7-3.2,2.4c-1.3,0.7-2.6,1.3-3.9,1.7c-1.2,0.4-2.8,0.8-4.5,1.1c-1.8,0.3-3.3,0.6-4.6,0.7
	c-1.3,0.1-2.9,0.2-4.8,0.3c-1.8,0.1-3.3,0.1-4.3,0.1c-1,0-2.3,0-3.9,0c-1.6,0-2.6,0-3,0v-27.5c0.4,0,1.7,0,3.9-0.1
	c2.1-0.1,3.9-0.1,5.3-0.1c1.4,0,3.2,0.1,5.6,0.2c2.4,0.2,4.4,0.4,6,0.7c1.6,0.3,3.4,0.8,5.3,1.5c1.9,0.7,3.5,1.5,4.7,2.5
	c1.2,1,2.2,2.2,3,3.7c0.8,1.5,1.2,3.3,1.2,5.2C-559,470.9-559.2,472.2-559.8,473.5z"/>
</svg>
