<?xml version="1.0" encoding="utf-8"?>
<!-- Generator: Adobe Illustrator 18.1.0, SVG Export Plug-In . SVG Version: 6.00 Build 0)  -->
<!DOCTYPE svg PUBLIC "-//W3C//DTD SVG 1.1//EN" "http://www.w3.org/Graphics/SVG/1.1/DTD/svg11.dtd">
<svg version="1.1" id="Capa_1" xmlns="http://www.w3.org/2000/svg" xmlns:xlink="http://www.w3.org/1999/xlink" x="0px" y="0px"
	 viewBox="-691 378 216 146" enable-background="new -691 378 216 146" xml:space="preserve">
<path fill="#41A447" d="M-546.1,466.9c-0.7-2.4-1.6-4.5-2.6-6.2c-1-1.8-2.4-3.5-4.3-5.2c-1.9-1.7-3.6-3-5.1-4.1
	c-1.5-1-3.5-2.2-6.2-3.5c-2.6-1.3-4.7-2.2-6.2-2.9c-1.5-0.6-3.7-1.5-6.6-2.6c-2.6-1-4.5-1.7-5.7-2.2c-1.2-0.5-2.9-1.2-4.9-2.2
	c-2-1-3.6-1.8-4.6-2.5c-1-0.7-2.1-1.6-3.2-2.7c-1.1-1.1-1.9-2.2-2.4-3.4c-0.5-1.2-0.7-2.5-0.7-3.9c0-3.7,1.6-6.7,4.9-9
	s7.5-3.5,12.6-3.5c2.3,0,4.6,0.3,7,0.9c2.4,0.6,4.4,1.3,6.1,2.1c1.7,0.8,3.3,1.7,4.8,2.6c1.5,1,2.6,1.7,3.2,2.2c0.6,0.5,1,0.8,1.2,1
	c0.7,0.5,1.4,0.7,2.2,0.6c0.8-0.1,1.4-0.5,1.9-1.3l6.6-11.9c0.7-1.1,0.5-2.1-0.4-3.1c-0.3-0.3-0.7-0.7-1.2-1.1
	c-0.5-0.4-1.5-1.2-3.2-2.4c-1.6-1.1-3.4-2.2-5.2-3.1c-1.8-0.9-4.2-1.8-7.1-2.7c-2.9-0.9-5.9-1.5-9-1.9v-14.3c0-0.8-0.2-1.4-0.7-1.9
	c-0.5-0.5-1.1-0.7-1.9-0.7h-11c-0.7,0-1.3,0.3-1.8,0.8s-0.8,1.1-0.8,1.8v14.7c-8.5,1.6-15.5,5.3-20.8,10.9c-5.3,5.6-8,12.2-8,19.7
	c0,2.2,0.2,4.3,0.7,6.4c0.5,2,1,3.8,1.7,5.4c0.7,1.6,1.6,3.2,2.9,4.7c1.2,1.5,2.4,2.9,3.5,4c1.1,1.1,2.6,2.3,4.4,3.5
	c1.8,1.2,3.3,2.2,4.6,2.9c1.3,0.7,3,1.6,5.1,2.5c2.1,1,3.8,1.7,5,2.2c1.2,0.5,2.9,1.2,5,2c2.9,1.1,5.1,2,6.5,2.6s3.2,1.5,5.4,2.6
	c2.2,1.1,3.8,2.1,4.8,3.1c1,0.9,1.9,2.1,2.7,3.4c0.8,1.4,1.2,2.8,1.2,4.3c0,4.3-1.7,7.6-5,9.9c-3.3,2.3-7.2,3.5-11.6,3.5
	c-2,0-4-0.2-6-0.7c-7.1-1.4-13.7-4.8-19.8-10.2l-0.2-0.2c-0.5-0.6-1.1-0.8-2-0.7c-0.9,0.1-1.5,0.4-1.9,1l-8.4,11
	c-0.8,1.1-0.8,2.2,0.2,3.3c0.3,0.3,0.7,0.8,1.4,1.5c0.7,0.7,1.9,1.7,3.8,3.1c1.8,1.4,3.9,2.7,6,3.9c2.2,1.2,4.9,2.4,8.3,3.6
	c3.3,1.2,6.8,2,10.4,2.5v14.3c0,0.7,0.3,1.3,0.8,1.8c0.5,0.5,1.1,0.8,1.8,0.8h11c0.8,0,1.4-0.2,1.9-0.7c0.5-0.5,0.7-1.1,0.7-1.9
	v-14.3c8.6-1.4,15.7-5.1,21.1-11.1c5.4-6,8.1-13.2,8.1-21.5C-545,471.8-545.3,469.3-546.1,466.9z"/>
</svg>
