<svg id="Layer_1" data-name="Layer 1" xmlns="http://www.w3.org/2000/svg" viewBox="0 0 24 24"><title>escrow-send-finish</title><path d="M16,11h4a.9588.9588,0,0,0-.9114-1H16.9114A.9588.9588,0,0,0,16,11Z" style="fill:#900"/><rect x="16" y="12" width="4" height="1" style="fill:#900"/><path d="M21.9982,17H20V14H16v3H14.0018a.3708.3708,0,0,0,0,.5242l3.7128,3.7168a.4032.4032,0,0,0,.57,0l3.7128-3.7168A.37.37,0,0,0,21.9982,17Z" style="fill:#900"/><path d="M16.54,2.6a3.9474,3.9474,0,0,0-5.61,0A3.8058,3.8058,0,0,0,9.77,5.4V7.11H3.81a.7855.7855,0,0,0-.6.25.7852.7852,0,0,0-.25.6v5.1a.8368.8368,0,0,0,.85.85h8.51a.8368.8368,0,0,0,.85-.85V7.96a.8536.8536,0,0,0-.85-.85h-.85V5.4a2.19,2.19,0,0,1,.66-1.6,2.212,2.212,0,0,1,1.61-.66,2.19,2.19,0,0,1,1.6.66,2.1606,2.1606,0,0,1,.67,1.6V7.67a.5089.5089,0,0,0,.17.4.5023.5023,0,0,0,.39.17h.57a.5087.5087,0,0,0,.4-.17.5439.5439,0,0,0,.17-.4V5.4A3.8151,3.8151,0,0,0,16.54,2.6ZM8,11.5a1,1,0,1,1,1-1A1.003,1.003,0,0,1,8,11.5Z" style="fill:#900"/></svg>
