<svg id="Layer_1" data-name="Layer 1" xmlns="http://www.w3.org/2000/svg" viewBox="0 0 24 24"><title>escrow-create</title><path d="M18.18,11.29a1.0635,1.0635,0,0,0-.8-.33h-.37V8.7a5.0406,5.0406,0,0,0-1.56-3.71,5.0407,5.0407,0,0,0-3.71-1.56A5.0465,5.0465,0,0,0,8.02,4.99,5.04,5.04,0,0,0,6.46,8.7v2.26H6.09a1.0791,1.0791,0,0,0-.8.33,1.0949,1.0949,0,0,0-.33.8v6.78a1.0948,1.0948,0,0,0,.33.8,1.0789,1.0789,0,0,0,.8.33H17.38a1.0632,1.0632,0,0,0,.8-.33,1.0946,1.0946,0,0,0,.33-.8V12.09A1.0947,1.0947,0,0,0,18.18,11.29ZM11.74,17a1.5,1.5,0,1,1,1.5-1.5A1.498,1.498,0,0,1,11.74,17Zm3.01-6.04H8.72V8.7a3.0216,3.0216,0,0,1,3.02-3.01A3.0045,3.0045,0,0,1,14.75,8.7Z" style="fill:#999"/></svg>