<svg id="Layer_1" data-name="Layer 1" xmlns="http://www.w3.org/2000/svg" viewBox="0 0 24 24"><title>escrow-send-cancel</title><path d="M19.33,8.1239l2.2183,2.2183A.4515.4515,0,0,0,22,9.8909V3.4514A.4515.4515,0,0,0,21.5486,3H15.1091a.4515.4515,0,0,0-.4514.4514l2.1688,2.1693-3.9722,5.23a.4516.4516,0,0,0,0,.6387l.4253.3783a.4526.4526,0,0,0,.6387,0Z" style="fill:#900"/><path d="M16.46,14.36a.8162.8162,0,0,0-.6-.25H9.9V12.4A3.8151,3.8151,0,0,0,8.73,9.6a3.799,3.799,0,0,0-2.8-1.17A3.8375,3.8375,0,0,0,3.12,9.6a3.8445,3.8445,0,0,0-1.16,2.8v2.27a.5089.5089,0,0,0,.17.4.5087.5087,0,0,0,.4.17h.56a.5087.5087,0,0,0,.4-.17.5441.5441,0,0,0,.17-.4V12.4a2.19,2.19,0,0,1,.66-1.6,2.212,2.212,0,0,1,1.61-.66,2.1736,2.1736,0,0,1,1.6.66,2.1606,2.1606,0,0,1,.67,1.6v1.71H7.35a.8536.8536,0,0,0-.85.85v5.1a.8225.8225,0,0,0,.25.61.8141.8141,0,0,0,.6.24h8.51a.847.847,0,0,0,.6-.24.8225.8225,0,0,0,.25-.61v-5.1A.7855.7855,0,0,0,16.46,14.36ZM11.5,18.5a1,1,0,1,1,1-1A1.003,1.003,0,0,1,11.5,18.5Z" style="fill:#900"/></svg>
