<svg id="Layer_1" data-name="Layer 1" xmlns="http://www.w3.org/2000/svg" viewBox="0 0 24 24"><title>escrow-cancel</title><path d="M20.5,5.31a5.1062,5.1062,0,0,0-7.25,0,4.9382,4.9382,0,0,0-1.5,3.62v2.2H4.06a1.0261,1.0261,0,0,0-.78.32,1.0194,1.0194,0,0,0-.32.77v6.6a1.0194,1.0194,0,0,0,.32.77,1.0261,1.0261,0,0,0,.78.32H15.04a1.0263,1.0263,0,0,0,.78-.32,1.0571,1.0571,0,0,0,.32-.77v-6.6a1.0571,1.0571,0,0,0-.32-.77,1.0263,1.0263,0,0,0-.78-.32h-1.1V8.93A2.9362,2.9362,0,0,1,16.87,6a2.8627,2.8627,0,0,1,2.08.86,2.8149,2.8149,0,0,1,.85,2.07v2.93a.7518.7518,0,0,0,.74.73h.73a.7521.7521,0,0,0,.73-.73V8.93A4.9382,4.9382,0,0,0,20.5,5.31ZM9.5,17A1.5,1.5,0,1,1,11,15.5,1.498,1.498,0,0,1,9.5,17Z" style="fill:#999"/></svg>