<svg id="Layer_1" data-name="Layer 1" xmlns="http://www.w3.org/2000/svg" viewBox="0 0 24 24"><title>escrow-send-create</title><path d="M21.93,7.36a.8225.8225,0,0,0-.61-.25h-.28V5.4a3.8311,3.8311,0,0,0-1.17-2.8,3.9474,3.9474,0,0,0-5.61,0,3.8311,3.8311,0,0,0-1.17,2.8V7.11h-.28a.8536.8536,0,0,0-.85.85v5.11a.8536.8536,0,0,0,.85.85h8.51a.8625.8625,0,0,0,.61-.25.8466.8466,0,0,0,.24-.6V7.96A.8138.8138,0,0,0,21.93,7.36ZM17,11.5a1,1,0,1,1,1-1A1.003,1.003,0,0,1,17,11.5Zm2.34-4.39H14.8V5.4a2.27,2.27,0,0,1,4.54,0Z" style="fill:#999"/><path d="M8.33,18.1239l2.2183,2.2183A.4515.4515,0,0,0,11,19.8909V13.4514A.4515.4515,0,0,0,10.5486,13H4.1091a.4515.4515,0,0,0-.4514.4514l2.1688,2.1693-3.9722,5.23a.4516.4516,0,0,0,0,.6387l.4253.3783a.4526.4526,0,0,0,.6387,0Z" style="fill:#999"/></svg>