<?xml version="1.0" encoding="utf-8"?>
<!-- Generator: Adobe Illustrator 18.1.0, SVG Export Plug-In . SVG Version: 6.00 Build 0)  -->
<svg version="1.1" id="Layer_1" xmlns="http://www.w3.org/2000/svg" xmlns:xlink="http://www.w3.org/1999/xlink" x="0px" y="0px"
	 viewBox="0 0 18.5 18.5" enable-background="new 0 0 18.5 18.5" xml:space="preserve">
<g>
	<path fill="#666A6A" d="M9.2,5.8c-1.9,0-3.4,1.5-3.4,3.4s1.5,3.4,3.4,3.4c1.9,0,3.4-1.5,3.4-3.4S11.1,5.8,9.2,5.8z M7.3,9.2
		c0-1.1,0.9-1.9,1.9-1.9c0.1,0,0.1,0,0.1,0v3.8c0,0-0.1,0-0.1,0C8.2,11.2,7.3,10.3,7.3,9.2z"/>
	<path fill="#666A6A" d="M9.2,4.1c0.4,0,0.8-0.3,0.8-0.8V0.8C10,0.3,9.7,0,9.2,0S8.5,0.3,8.5,0.8v2.6C8.5,3.7,8.8,4.1,9.2,4.1z"/>
	<path fill="#666A6A" d="M13.4,5.8c0.2,0,0.4-0.1,0.5-0.2l1.8-1.8c0.3-0.3,0.3-0.8,0-1.1s-0.8-0.3-1.1,0l-1.8,1.8
		c-0.3,0.3-0.3,0.8,0,1.1C13,5.7,13.2,5.8,13.4,5.8z"/>
	<path fill="#666A6A" d="M17.8,8.5h-2.6c-0.4,0-0.8,0.3-0.8,0.8s0.3,0.8,0.8,0.8h2.6c0.4,0,0.8-0.3,0.8-0.8S18.2,8.5,17.8,8.5z"/>
	<path fill="#666A6A" d="M14,12.9c-0.3-0.3-0.8-0.3-1.1,0s-0.3,0.8,0,1.1l1.8,1.8c0.1,0.1,0.3,0.2,0.5,0.2s0.4-0.1,0.5-0.2
		c0.3-0.3,0.3-0.8,0-1.1L14,12.9z"/>
	<path fill="#666A6A" d="M9.2,14.4c-0.4,0-0.8,0.3-0.8,0.8v2.6c0,0.4,0.3,0.8,0.8,0.8s0.8-0.3,0.8-0.8v-2.6
		C10,14.8,9.7,14.4,9.2,14.4z"/>
	<path fill="#666A6A" d="M4.5,12.9l-1.8,1.8c-0.3,0.3-0.3,0.8,0,1.1C2.9,15.9,3,16,3.2,16s0.4-0.1,0.5-0.2L5.6,14
		c0.3-0.3,0.3-0.8,0-1.1S4.8,12.6,4.5,12.9z"/>
	<path fill="#666A6A" d="M4.1,9.2c0-0.4-0.3-0.8-0.8-0.8H0.8C0.3,8.5,0,8.8,0,9.2S0.3,10,0.8,10h2.6C3.7,10,4.1,9.7,4.1,9.2z"/>
	<path fill="#666A6A" d="M3.8,2.7C3.5,2.4,3,2.4,2.7,2.7s-0.3,0.8,0,1.1l1.8,1.8c0.1,0.1,0.3,0.2,0.5,0.2s0.4-0.1,0.5-0.2
		c0.3-0.3,0.3-0.8,0-1.1L3.8,2.7z"/>
</g>
</svg>
