<?xml version="1.0" encoding="utf-8"?>
<!-- Generator: Adobe Illustrator 18.1.0, SVG Export Plug-In . SVG Version: 6.00 Build 0)  -->
<svg version="1.1" id="Layer_1" xmlns="http://www.w3.org/2000/svg" xmlns:xlink="http://www.w3.org/1999/xlink" x="0px" y="0px"
   viewBox="0 0 1920 1080" enable-background="new 0 0 1920 1080" xml:space="preserve">
<g>
  <path fill="#aaaaaa" d="M962.8,350.6c-107.4,0-192.3,84.8-192.3,192.3s84.8,192.3,192.3,192.3c107.4,0,192.3-84.8,192.3-192.3
    S1064.6,350.6,962.8,350.6z M849.7,542.8c0-62.2,50.9-107.4,107.4-107.4c5.7,0,5.7,0,5.7,0v214.9h-5.7
    C900.6,650.3,849.7,599.4,849.7,542.8z"/>
  <path fill="#aaaaaa" d="M962.8,248.8c22.6,0,45.2-17,45.2-45.2V62.2c0-22.6-17-45.2-45.2-45.2c-28.3,0-45.2,17-45.2,45.2v147
    C917.6,231.8,934.6,248.8,962.8,248.8z"/>
  <path fill="#aaaaaa" d="M1194.7,344.9c11.3,0,22.6-5.7,28.3-11.3l101.8-101.8c17-17,17-45.2,0-62.2s-39.6-17-56.5,0l-101.8,101.8
    c-17,17-17,45.2,0,62.2C1177.7,344.9,1183.4,344.9,1194.7,344.9z"/>
  <path fill="#aaaaaa" d="M1443.5,497.6h-147c-22.6,0-45.2,17-45.2,45.2c0,28.3,17,45.2,45.2,45.2h147c22.6,0,45.2-17,45.2-45.2
    C1488.7,514.6,1466.1,497.6,1443.5,497.6z"/>
  <path fill="#aaaaaa" d="M1228.6,746.4c-17-17-45.2-17-62.2,0c-17,17-17,45.2,0,62.2l101.8,101.8c5.7,5.7,17,11.3,28.3,11.3
    c11.3,0,22.6-5.7,28.3-11.3c17-17,17-45.2,0-62.2L1228.6,746.4z"/>
  <path fill="#aaaaaa" d="M962.8,831.2c-22.6,0-45.2,17-45.2,45.2v147c0,22.6,17,45.2,45.2,45.2c28.3,0,45.2-17,45.2-45.2v-147
    C1002.4,853.8,985.4,831.2,962.8,831.2z"/>
  <path fill="#aaaaaa" d="M691.4,746.4L589.6,848.2c-17,17-17,45.2,0,62.2c5.7,5.7,17,11.3,28.3,11.3s22.6-5.7,28.3-11.3L748,808.6
    c17-17,17-45.2,0-62.2C731,729.4,708.4,729.4,691.4,746.4z"/>
  <path fill="#aaaaaa" d="M668.8,542.8c0-22.6-17-45.2-45.2-45.2H482.2c-22.6,0-45.2,17-45.2,45.2c0,28.3,17,45.2,45.2,45.2h147
    C651.8,582.4,668.8,565.4,668.8,542.8z"/>
  <path fill="#aaaaaa" d="M651.8,169.6c-17-17-45.2-17-62.2,0c-17,17-17,45.2,0,62.2l101.8,101.8c11.3,11.3,22.6,11.3,33.9,11.3
    c11.3,0,22.6-5.7,28.3-11.3c17-17,17-45.2,0-62.2L651.8,169.6z"/>
</g>
</svg>
