<?xml version="1.0" encoding="utf-8"?>
<!-- Generator: Adobe Illustrator 18.1.0, SVG Export Plug-In . SVG Version: 6.00 Build 0)  -->
<svg version="1.1" id="Layer_1" xmlns="http://www.w3.org/2000/svg" xmlns:xlink="http://www.w3.org/1999/xlink" x="0px" y="0px"
   viewBox="0 0 1920 1080" enable-background="new 0 0 1920 1080" xml:space="preserve">
<g>
  <path fill="#aaaaaa" d="M960,33.2c-279.5,0-506.8,227.4-506.8,506.8s227.4,506.8,506.8,506.8s506.8-227.4,506.8-506.8
    C1466.8,260.5,1239.5,33.2,960,33.2z M960,975.8c-241.6,0-435.8-194.2-435.8-435.8S718.4,104.2,960,104.2s435.8,194.2,435.8,435.8
    C1395.8,781.6,1201.6,975.8,960,975.8z"/>
  <circle fill="#aaaaaa" cx="960" cy="288.9" r="56.8"/>
  <path fill="#aaaaaa" d="M1026.3,715.3h-28.4V440.5c0-18.9-14.2-37.9-37.9-37.9h-66.3c-18.9,0-37.9,14.2-37.9,37.9
    c0,23.7,18.9,33.2,37.9,33.2h28.4v236.8h-28.4c-18.9,0-37.9,14.2-37.9,37.9c0,18.9,14.2,37.9,37.9,37.9h132.6
    c18.9,0,37.9-14.2,37.9-37.9C1059.5,729.5,1045.3,715.3,1026.3,715.3z"/>
</g>
</svg>
