<?xml version="1.0" encoding="utf-8"?>
<!-- Generator: Adobe Illustrator 15.0.2, SVG Export Plug-In  -->
<!DOCTYPE svg PUBLIC "-//W3C//DTD SVG 1.0//EN" "http://www.w3.org/TR/2001/REC-SVG-20010904/DTD/svg10.dtd" [
	<!ENTITY ns_flows "http://ns.adobe.com/Flows/1.0/">
]>
<svg version="1.0"
	 xmlns="http://www.w3.org/2000/svg" xmlns:xlink="http://www.w3.org/1999/xlink" xmlns:a="http://ns.adobe.com/AdobeSVGViewerExtensions/3.0/"
	 x="0px" y="0px" width="24px" height="24px" viewBox="0.25 -0.417 24 24"
	 overflow="visible" enable-background="new 0.25 -0.417 24 24" xml:space="preserve">
<defs>
</defs>
<rect x="0.5" y="0.5" display="none" fill="#FFFFFF" stroke="#000000" stroke-miterlimit="10" width="23.667" height="23.667"/>
<path fill="#990000" d="M18.355,16.636l0.09,2.539c0.147,0.138,0.378,0.129,0.516-0.019l3.554-3.813
	c0.138-0.148,0.131-0.378-0.017-0.516l-3.813-3.555c-0.147-0.137-0.38-0.128-0.516,0.019l0.086,2.481l-5.238,0.904
	c-0.202,0.007-0.359,0.177-0.354,0.378l0.043,0.459c0.006,0.201,0.177,0.359,0.378,0.352L18.355,16.636z"/>
<path fill="#990000" d="M16.012,7.639c0,0,0.073-2.328-0.637-3.038c-1.072-1.072-3.6-0.873-3.6-0.873
	c-0.902-0.078-1.702,0.078-2.411,0.787L2.678,11.2c-0.708,0.708-0.708,1.858,0,2.567l3.413,3.414c0.709,0.708,1.858,0.708,2.567,0
	l6.686-6.686C16.053,9.787,16.008,8.386,16.012,7.639z M12.729,7.121c-0.441-0.442-0.441-1.158,0.001-1.601
	c0.441-0.442,1.158-0.442,1.6,0s0.441,1.159,0,1.601S13.171,7.562,12.729,7.121z"/>
</svg>
