<?xml version="1.0" encoding="utf-8"?>
<!-- Generator: Adobe Illustrator 15.0.2, SVG Export Plug-In  -->
<!DOCTYPE svg PUBLIC "-//W3C//DTD SVG 1.0//EN" "http://www.w3.org/TR/2001/REC-SVG-20010904/DTD/svg10.dtd" [
	<!ENTITY ns_flows "http://ns.adobe.com/Flows/1.0/">
]>
<svg version="1.0"
	 xmlns="http://www.w3.org/2000/svg" xmlns:xlink="http://www.w3.org/1999/xlink" xmlns:a="http://ns.adobe.com/AdobeSVGViewerExtensions/3.0/"
	 x="0px" y="0px" width="24px" height="24px" viewBox="0.25 -0.417 24 24"
	 overflow="visible" enable-background="new 0.25 -0.417 24 24" xml:space="preserve">
<defs>
</defs>
<rect x="0.5" y="0.5" display="none" fill="#FFFFFF" stroke="#000000" stroke-miterlimit="10" width="23.667" height="23.667"/>
<path fill="#999999" d="M16.159,7.607c0,0,0.074-2.328-0.636-3.037c-1.072-1.073-3.601-0.873-3.601-0.873
	C11.021,3.62,10.22,3.775,9.511,4.483l-6.686,6.685c-0.708,0.709-0.708,1.859,0,2.568l3.413,3.413c0.708,0.709,1.858,0.709,2.567,0
	l6.686-6.685C16.2,9.755,16.156,8.354,16.159,7.607z M12.877,7.09c-0.442-0.442-0.442-1.159,0-1.6c0.441-0.442,1.158-0.442,1.6,0
	c0.442,0.441,0.442,1.158,0,1.6C14.036,7.531,13.319,7.531,12.877,7.09z"/>
<rect x="14.1" y="14.235" transform="matrix(0.7071 0.7071 -0.7071 0.7071 16.1475 -8.5051)" fill="#999999" width="8.481" height="2.009"/>
<rect x="14.1" y="14.235" transform="matrix(-0.7071 0.7071 -0.7071 -0.7071 42.0855 13.0461)" fill="#999999" width="8.481" height="2.009"/>
</svg>
